<?xml version="1.0" encoding="UTF-8"?>
<svg viewBox="0 0 210 297" xmlns="http://www.w3.org/2000/svg">
 <path class="fil0" d="m46.96 49.655c8.7537 35.781 39.788 60.272 47.298 83.477 8.8333 23.865 4.1095 37.202 0.7815 55.245 0.9408-0.881 8.6268-14.185 27.181-23.233 24.806-13.179 56.339-8.072 76.938-25.291-2.48 2.998-19.16 40.496-27.635 42.119 0.327 7.852-5.076 9.071-8.039 9.853 0.136 7.445-5.592 8.491-8.817 8.28 0.177 2.316-0.562 8.641-8.268 8.208-1.72 4.001-5.296 5.332-7.695 5.949-8.399 2.161-25.554-6.572-32.91-11.499 4.219 2.973 12.672 9.545 15.308 18.184 1.144 3.751 2.721 14.555-1.627 15.485-2.068 1.279-6.976 1.447-9.51-1.023-4.387 2.266-7.5204 0.34201-10.605-1.77-2.2741 0.16899-4.4768 0.144-6.1935-1.612-5.1689-5.287-4.4799-20.543-2.1608-33.797-16.877 11.983-39.176 22.693-59.904 19.586-5.227-0.987-6.9722-3.179-6.013-9.541-4.6005-2.702-6.1909-7.986-3.3153-11.831-2.6961-1.315-8.9765-8.289-6.279-13.717 0.6252-1.258 2.0313-3.343 5.8623-4.118 16.079-5.757 39.037 4.969 47.184 7.443 0 0-10.512-4.346-24.783-12.776-8.4942-5.018-23.655-16.217-20.628-29.119-2.2163-2.641-5.1482-11.627 0.5359-16.504-0.8404-1.478-4.8532-10.066 2.3144-15.508-2.6767-8.278 1.3855-12.504 3.6313-13.713-1.4704-14.257 16.097-33.263 17.348-48.777zm55.168 149.2c5.6939 2.596 9.1699 3.414 13.757 4.02 1.327 0.175 5.047 0.323 7.079-0.24 2.081-0.976 1.398-1.838 0.166-3.176 2.663 1.103 9.787-0.789 6.311-4.291 2.387 0.886 4.915 0.773 4.084 3.337-1.548 2.21-4.268 2.467-6.669 1.752 1.569 1.595 0.85 2.688-0.167 3.278-3.156 1.682-7.783 1.349-10.152 0.765-5.139-1.342-9.302-2.317-14.409-5.445zm-23.122-10.646c-6.5671-3.737-13.309-7.651-17.704-11.415-3.1883-2.73-5.1818-5.295-4.7879-8.07 0.2503-1.522 2.1194-1.694 4.3001-1.434-1.4027-0.826-4.2032-4.208-3.436-6.999 0.7345-1.868 1.5177-2.402 4.1874-2.242-2.5549-1.71-5.343-3.335-7.265-0.70999-1.1953 2.581 0.2851 5.136 2.7286 6.973-2.3943-0.483-4.2124 0.315-4.524 2.061-0.7341 3.948 2.4265 7.854 7.8031 11.518 5.1405 3.775 12.025 7.531 18.698 10.319v-0.001007zm31.51 21.479c1.96 3.737 4.704 6.879 5.516 12.228 0.246 1.62 0.506 4.573-0.89 6.783-2.073 2.055-4.065 1.074-5.972 0.048996-1.125 2.229-5.206 2.08-6.401 0.409 1.131 2.49 2.545 3.453 5.241 3.434 1.227-0.187 2.647-1.344 2.631-2.183 1.739 2.357 3.797 2.796 5.731 1.43 2.549-2.785 1.559-7.216 1.241-8.843-2.072-7.085-3.712-8.914-7.097-13.307zm-54.727-25.365c-5.0221-1.639-15.18-2.112-21.699-0.82399-1.9403 0.383-7.2544 2.622-7.9628 5.563-0.7082 2.94 1.778 4.81 3.5483 5.813-3.4258 3.269-1.4902 9.081 1.283 9.524-6.5144-0.995-6.5268-4.446-6.5982-6.234-0.0714-1.789 1.2366-4.265 2.2131-4.543-3.3816-1.359-6.4257-4.219-4.5127-7.713 1.412-2.742 5.6634-3.659 8.0162-4.204s16.185-1.716 25.712 2.618z" fill="#7f007f"/>
</svg>
