<?xml version="1.0" encoding="UTF-8"?>
<svg enable-background="new 0 0 712.282 391.296" viewBox="0 0 712.282 391.296" xmlns="http://www.w3.org/2000/svg">
 <defs>
  <linearGradient id="a" x1=".3931" x2="705.82" gradientUnits="userSpaceOnUse">
   <stop stop-color="#bbbbfc" offset="0"/>
   <stop stop-color="#999" offset="1"/>
  </linearGradient>
 </defs>
 <path d="m0.393 136.48 153.87 30.956 27.223 221.45-0.892-1.84 82.38-210.72 284.25 42.304 158.6-214.31-439.12 129.78-266.31 2.381z" fill="url(#a)" stroke="#000" stroke-width="3.9882"/>
 <path d="m182.89 387.03 524.1-382.98-441.66 174.97-82.442 208.01z" fill="#a2a2dd" stroke="#000" stroke-width="2.9912"/>
 <path d="m705.9 4.055-550.64 163.06-153.87-30.956 704.51-132.1z" fill="#ccf" stroke="#000" stroke-width="4.9853"/>
 <path d="m706.52 4.398-158.19 212.43-282.09-39.978 440.28-172.45z" fill="#b1b1fc" stroke="#000" stroke-width="3.9882"/>
 <path d="m552.22 63.363 7.229-4.546 98.507 12.728 48.565-67.147-146.17 49.874-8.133 9.091z" fill="#b1b1fc" stroke="#000" stroke-width="3.9882"/>
 <path d="m538.66 66.999-4.519-11.818-54.225-10 12.652-4.545 211.48-37.273-163.58 50.909-1.807 12.727z" fill="#b1b1fc" stroke="#000" stroke-width="3.9882"/>
</svg>
